<svg width="280" height="280" xmlns="http://www.w3.org/2000/svg">

 <g>
  <title/>
  <path clip-rule="evenodd" d="M 155.626 181.484 L 172.461 198.32 C 178.009 203.873 186.974 203.873 192.529 198.32 C 198.088 192.766 198.088 183.793 192.529 178.246 L 175.753 161.41 L 192.529 144.632 C 192.529 144.632 129.009 117.498 126.405 116.515 C 125.015 115.993 123.569 115.705 122.066 115.705 C 115.355 115.705 109.92 121.086 109.92 127.739 C 109.92 129.301 110.207 130.748 110.732 132.078 C 111.715 134.564 138.845 198.32 138.845 198.32 L 155.626 181.484 Z M -0.00000860946 237.195 C -0.00000860946 249.98 10.3562 260.335 23.1397 260.335 L 254.55 260.335 C 267.335 260.335 277.69 249.98 277.69 237.195 L 277.69 23.1416 C 277.69 10.3562 267.335 0 254.55 0 L 23.1403 0 C 10.3562 0 0.00060803 10.3562 0.00060803 23.1416 L 0.00060803 237.195 L -0.00000860946 237.195 Z M 41.6553 80.9933 L 236.036 80.9933 C 243.094 80.9933 248.764 86.6624 248.764 93.7217 L 248.764 218.678 C 248.764 225.737 243.094 231.408 236.036 231.408 L 41.6553 231.408 C 34.5981 231.408 28.9259 225.737 28.9259 218.678 L 28.9259 93.7217 C 28.9252 86.6632 34.5981 80.9933 41.6553 80.9933 Z M 28.9252 43.3897 C 28.9252 35.4057 35.4055 28.9272 43.3885 28.9272 C 51.3721 28.9272 57.8512 35.4057 57.8512 43.3897 C 57.8512 51.3721 51.3721 57.8525 43.3885 57.8525 C 35.4061 57.8525 28.9252 51.3721 28.9252 43.3897 Z M 80.9929 43.3897 C 80.9929 35.4057 87.4728 28.9272 95.4552 28.9272 C 103.44 28.9272 109.92 35.4057 109.92 43.3897 C 109.92 51.3721 103.44 57.8525 95.4552 57.8525 C 87.4728 57.8525 80.9929 51.3721 80.9929 43.3897 Z M 133.06 43.3897 C 133.06 35.4057 139.54 28.9272 147.524 28.9272 C 155.506 28.9272 161.985 35.4057 161.985 43.3897 C 161.985 51.3721 155.506 57.8525 147.524 57.8525 C 139.54 57.8525 133.06 51.3721 133.06 43.3897 Z" fill="#607276" fill-rule="evenodd" id="imagebot_1"/>
 </g>
</svg>