<svg width="280" height="280" xmlns="http://www.w3.org/2000/svg">
 <!-- Created with ImageBot - http://www.imagebot.com/ -->

 <g id="imagebot_1">
  <title>Layer 1</title>
  <g transform="translate(0 34.9394) matrix(2.34553 0 0 2.34553 -16.3692 -51.3086)" id="imagebot_8">
   <path transform="matrix(1.04167 0 0 1.04167 0 0)" id="imagebot_11" fill="#607274" d="M111,25C114.3,25 117,27.7 117,31L117,97C117,100.3 114.3,103 111,103L17,103C13.7,103 11,100.3 11,97L11,31C11,27.7 13.7,25 17,25L111,25M111,21L17,21C11.5,21 7,25.5 7,31L7,97C7,102.5 11.5,107 17,107L111,107C116.5,107 121,102.5 121,97L121,31C121,25.5 116.5,21 111,21L111,21z"/>
   <path transform="matrix(1.04167 0 0 1.04167 0 0)" id="imagebot_12" fill="#607274" d="M111.5,44L17,44C16.4,44 16,43.6 16,43S16.4,42 17,42L111.5,42C112.1,42 112.5,42.4 112.5,43S112.1,44 111.5,44z"/>
   <circle transform="matrix(1.04167 0 0 1.04167 0 0)" id="imagebot_13" r="3" fill="#607274" cy="33.8" cx="21.5"/>
   <circle transform="matrix(1.04167 0 0 1.04167 0 0)" id="imagebot_14" r="3" fill="#607274" cy="33.8" cx="30.5"/>
   <circle transform="matrix(1.04167 0 0 1.04167 0 0)" id="imagebot_15" r="3" fill="#607274" cy="33.8" cx="39.5"/>
  </g>
 </g>
</svg>