<svg width="70" height="70" xmlns="http://www.w3.org/2000/svg">
 <title>application</title>

 <g>
  <title>Layer 1</title>
  <path id="imagebot_2" fill-rule="evenodd" fill="#607276" d="M 39.098 46.76 L 43.1924 50.8545 C 44.5415 52.205 46.7218 52.205 48.0729 50.8545 C 49.4247 49.5037 49.4247 47.3216 48.0729 45.9724 L 43.993 41.878 L 48.0729 37.7977 C 48.0729 37.7977 32.625 31.1987 31.9917 30.9598 C 31.6535 30.8328 31.3019 30.7628 30.9364 30.7628 C 29.3042 30.7628 27.9825 32.0714 27.9825 33.6893 C 27.9825 34.0692 28.0522 34.421 28.1801 34.7445 C 28.419 35.3492 35.017 50.8545 35.017 50.8545 L 39.098 46.76 Z M 1.25023 60.3087 C 1.25023 63.4181 3.76883 65.9363 6.87775 65.9363 L 63.1562 65.9363 C 66.2654 65.9363 68.7837 63.4181 68.7837 60.3087 L 68.7837 8.2515 C 68.7837 5.14212 66.2654 2.62352 63.1562 2.62352 L 6.8779 2.62352 C 3.76883 2.62352 1.25038 5.14212 1.25038 8.2515 L 1.25038 60.3087 L 1.25023 60.3087 Z M 11.3807 22.3209 L 58.6535 22.3209 C 60.37 22.3209 61.7491 23.6996 61.7491 25.4164 L 61.7491 55.8056 C 61.7491 57.5222 60.37 58.9015 58.6535 58.9015 L 11.3807 58.9015 C 9.6644 58.9015 8.28493 57.5222 8.28493 55.8056 L 8.28493 25.4164 C 8.28478 23.6998 9.6644 22.3209 11.3807 22.3209 Z M 8.28478 13.1758 C 8.28478 11.2341 9.86076 9.65854 11.8022 9.65854 C 13.7438 9.65854 15.3195 11.2341 15.3195 13.1758 C 15.3195 15.1171 13.7438 16.6931 11.8022 16.6931 C 9.86092 16.6931 8.28478 15.1171 8.28478 13.1758 Z M 20.9475 13.1758 C 20.9475 11.2341 22.5234 9.65854 24.4647 9.65854 C 26.4065 9.65854 27.9825 11.2341 27.9825 13.1758 C 27.9825 15.1171 26.4065 16.6931 24.4647 16.6931 C 22.5234 16.6931 20.9475 15.1171 20.9475 13.1758 Z M 33.61 13.1758 C 33.61 11.2341 35.186 9.65854 37.1276 9.65854 C 39.069 9.65854 40.6447 11.2341 40.6447 13.1758 C 40.6447 15.1171 39.069 16.6931 37.1276 16.6931 C 35.186 16.6931 33.61 15.1171 33.61 13.1758 Z" clip-rule="evenodd"/>
 </g>
</svg>