<svg width="2421" height="1567" xmlns="http://www.w3.org/2000/svg">

 <g>
  <title>Layer 1</title>
  <path d="M 2390.17 1478.27 C 2389.98 1478.07 2389.67 1478.07 2389.48 1478.27 L 2332.64 1535.03 C 2332.45 1535.22 2332.45 1535.53 2332.64 1535.72 L 2351.85 1554.91 C 2351.94 1555 2352.07 1555.05 2352.19 1555.05 C 2352.32 1555.05 2352.45 1555 2352.54 1554.91 L 2409.38 1498.14 C 2409.47 1498.05 2409.52 1497.92 2409.52 1497.79 S 2409.47 1497.54 2409.38 1497.45 L 2390.17 1478.27 Z" id="imagebot_8"/>
 </g>
 <g>
  <title>Layer 2</title>
  <path d="M 2417.85 1476.12 L 2411.53 1469.81 C 2409.71 1468 2407.3 1467 2404.74 1467 C 2402.17 1467 2399.76 1468 2397.95 1469.81 L 2391.63 1476.12 C 2391.53 1476.21 2391.48 1476.34 2391.48 1476.47 C 2391.48 1476.6 2391.53 1476.72 2391.63 1476.81 L 2410.83 1496 C 2410.93 1496.09 2411.05 1496.14 2411.18 1496.14 C 2411.31 1496.14 2411.44 1496.09 2411.53 1496 L 2417.85 1489.68 C 2419.66 1487.87 2420.66 1485.46 2420.66 1482.9 C 2420.66 1480.34 2419.66 1477.93 2417.85 1476.12 Z" id="imagebot_7"/>
 </g>
 <g>
  <title>Layer 3</title>
  <path d="M 2331.36 1536.97 C 2331.24 1536.85 2331.06 1536.8 2330.89 1536.84 C 2330.73 1536.88 2330.59 1537 2330.54 1537.17 L 2321.36 1566.36 C 2321.31 1566.54 2321.35 1566.73 2321.49 1566.86 C 2321.58 1566.95 2321.71 1567 2321.83 1567 C 2321.89 1567 2321.94 1566.99 2322 1566.97 L 2350.38 1556.96 C 2350.54 1556.9 2350.66 1556.77 2350.7 1556.61 C 2350.74 1556.44 2350.69 1556.27 2350.57 1556.15 L 2331.36 1536.97 Z" id="imagebot_6"/>
 </g>
 <g>
  <title>Layer 4</title>
  <path d="M 2323.34 1521.1 C 2321.94 1520.16 2321 1518.29 2321 1516.65 C 2321 1515.01 2321.7 1513.49 2323.46 1512.67 L 2323.34 1512.67 C 2331.66 1507.75 2343.26 1501.19 2350.99 1496.62 L 2350.99 1507.51 C 2347.94 1509.27 2343.84 1511.26 2333.53 1516.77 L 2333.65 1516.88 C 2339.16 1519.34 2345.48 1523.09 2350.99 1526.37 L 2350.99 1537.38 L 2323.34 1521.1 Z" id="imagebot_5"/>
 </g>
 <g>
  <title>Layer 5</title>
  <path d="M 2418.66 1512.9 C 2420.06 1513.84 2421 1515.71 2421 1517.35 S 2420.3 1520.51 2418.54 1521.33 L 2418.66 1521.33 C 2410.34 1526.25 2398.74 1532.81 2391.01 1537.38 L 2391.01 1526.49 C 2394.06 1524.73 2398.16 1522.74 2408.47 1517.23 L 2408.35 1517.12 C 2402.84 1514.66 2396.52 1510.91 2391.01 1507.63 L 2391.01 1496.62 L 2418.66 1512.9 Z" id="imagebot_4"/>
 </g>
 <g>
  <title>Layer 6</title>
  <path d="M 2367.4 1538.84 L 2360.39 1538.84 L 2374.48 1495.16 L 2381.61 1495.16 L 2367.4 1538.84 Z" id="imagebot_3"/>
 </g>
 <g>
  <title>Layer 7</title>
  <text fill="#607276" font-style="normal" stroke-width="0" font-weight="bold" font-family="Courier-Bold" font-size="177.33px" x="0" y="158.00025" id="imagebot_2">&lt;/&gt;</text>
 </g>
 <metadata>image/svg+xmlOpenclipart</metadata>
</svg>