<svg width="70" height="60" xmlns="http://www.w3.org/2000/svg">

 <title>code</title>
 <desc/>
 <g id="imagebot_1" fill-rule="evenodd" fill="none">
  <g transform="translate(0 0.524288) matrix(2.17427 0 0 2.17427 0 -6.52282)" fill-rule="evenodd" id="imagebot_2" fill="#929292">
   <path id="imagebot_3" d="M19,13L19,10L19,10L13,3L2.00276,3C0.89667,3 0,3.89834 0,5.00733L0,27.99267C0,29.10129 0.89093,30 1.99742,30L17.00258,30C18.10572,30 19,29.10179 19,28.0092L19,26L29.00572,26C30.65941,26 32,24.65774 32,23.00121L32,15.99879C32,14.3426 30.65943,13 29.00572,13L19,13L19,13L19,13zM18,26L18,28.0066C18,28.55505 17.5523,29 17.00004,29L1.99996,29C1.45471,29 1,28.55432 1,28.00454L1,4.99546C1,4.45526 1.44574,4 1.99558,4L12,4L12,8.99408C12,10.11345 12.8945,11 13.99791,11L18,11L18,13L5.99428,13C4.34059,13 3,14.34226 3,15.99879L3,23.00121C3,24.6574 4.34057,26 5.99428,26L18,26L18,26L18,26zM13,4.5L13,8.99121C13,9.54835 13.45065,10 13.99674,10L17.69995,10L13,4.5L13,4.5zM6.00733,14C4.89871,14 4,14.90018 4,15.99202L4,23.00798C4,24.10814 4.89834,25 6.00733,25L28.99267,25C30.10129,25 31,24.09982 31,23.00798L31,15.99202C31,14.89186 30.10166,14 28.99267,14L6.00733,14L6.00733,14zM29,22L29,23L24,23L24,16L25,16L25,22L29,22L29,22zM14,17L14,23L15,23L15,17L17,17L17,16L12,16L12,17L14,17L14,17zM10,19L10,16L11,16L11,23L10,23L10,20L7,20L7,23L6,23L6,16L7,16L7,19L10,19L10,19zM20.5,19L19,16L18.5,16L18,16L18,23L19,23L19,18L20,20L20.5,20L21,20L22,18L22,23L23,23L23,16L22.5,16L22,16L20.5,19L20.5,19z"/>
  </g>
  <title>imagebot_1</title>
 </g>
</svg>