<svg width="71" height="60" xmlns="http://www.w3.org/2000/svg">

 <metadata id="imagebot_16">image/svg+xml</metadata>
 <g id="imagebot_2" label="Capa 1">
  <rect transform="matrix(-1 0 0 1 121.529 -96.0818)" label="Capa 1" fill="none" stroke="#607276" stroke-width="1.08113" id="imagebot_15" width="58.7741" height="39.01168" x="56.81541" y="96.62237" ry="4.08072"/>
  <rect transform="matrix(-1 0 0 1 121.529 -96.0818)" label="Capa 1" fill="none" stroke="#607276" stroke-width="1.03118" id="imagebot_14" width="51.5577" height="29.36354" x="60.42358" y="100.6676"/>
  <path transform="matrix(-1 0 0 1 121.529 -96.0818)" label="Capa 1" fill="none" stroke="#607276" stroke-width="1.08113" stroke-miterlimit="60.9" d="M 51.1606 136.169 L 51.1606 137.639 C 51.1606 139.427 52.6119 140.879 54.441 140.879 L 117.93 140.879 C 119.759 140.879 121.244 139.427 121.244 137.639 L 121.244 136.169 L 51.1606 136.169 Z" id="imagebot_13"/>
  <path transform="matrix(-1 0 0 1 121.529 -96.0818)" label="Capa 1" fill="#607276" d="M 50.5289 135.785 L 56.1712 132.15 L 115.929 132.15 L 121.828 135.66 L 50.5289 135.785 Z" id="imagebot_12"/>
  <ellipse transform="matrix(-1 0 0 1 121.529 -96.0818)" label="Capa 1" fill="#607276" id="imagebot_11" cx="86.17857" cy="98.75633" rx="0.89765" ry="0.87753"/>
  <rect transform="matrix(-1 0 0 1 121.529 -96.0818)" label="Capa 1" fill="#242830" stroke="#607276" stroke-width="1.08113" stroke-miterlimit="4" id="imagebot_10" width="32.86172" height="48.49064" x="73.58713" y="103.36821" ry="5.05111"/>
  <rect transform="matrix(-1 0 0 1 121.529 -96.0818)" label="Capa 1" fill="#000000" fill-opacity="0" stroke="#607276" stroke-width="1.08113" stroke-miterlimit="4" id="imagebot_9" width="25.00797" height="36.58103" x="77.51402" y="108.40848" ry="0"/>
  <rect transform="matrix(-1 0 0 1 121.529 -96.0818)" label="Capa 1" fill="#607276" id="imagebot_8" width="6.20033" height="1.8184" x="86.91797" y="147.49214"/>
  <ellipse transform="matrix(-1 0 0 1 121.529 -96.0818)" label="Capa 1" fill="#607276" id="imagebot_7" cx="90.46197" cy="105.99403" rx="0.7783" ry="0.76085"/>
  <rect transform="matrix(-1 0 0 1 121.529 -96.0818)" label="Capa 1" fill="#242830" stroke="#607276" stroke-width="1.08113" stroke-miterlimit="4" ry="3.24896" y="124.49715" x="65.01723" height="31.19" width="19.38501" id="imagebot_6"/>
  <rect transform="matrix(-1 0 0 1 121.529 -96.0818)" label="Capa 1" fill="#242830" stroke="#607276" stroke-width="1.08113" stroke-miterlimit="4" ry="0" y="127.73907" x="67.33363" height="23.52955" width="14.75211" id="imagebot_5"/>
  <rect transform="matrix(-1 0 0 1 121.529 -96.0818)" label="Capa 1" fill="#607276" stroke="#607276" y="152.87823" x="72.88097" height="1.16963" width="3.65755" id="imagebot_4"/>
  <rect transform="matrix(-1 0 0 1 121.529 -96.0818)" label="Capa 1" fill="#607276" fill-rule="nonzero" y="135.51147" x="110.07701" height="0.60983" width="11.44454" id="imagebot_3"/>
  <title>Capa 1</title>
 </g>
</svg>